<?xml version="1.0" encoding="UTF-8"?>
<!-- Category: items | Item: Ephod Breastplate (Hoshen) flat/top-down view -->
<!-- Exodus 28:17-21 — 12 stones set in 4 rows of 3, engraved with tribe names -->
<svg xmlns="http://www.w3.org/2000/svg" width="200" height="180" viewBox="0 0 200 180">
  <!-- Gold frame -->
  <rect x="48" y="50" width="104" height="112" rx="10" fill="#B8860B" stroke="#FFD700" stroke-width="3"/>
  <rect x="54" y="56" width="92" height="100" rx="7" fill="#C5A020"/>
  <!-- Gold thread details (woven look) -->
  <line x1="54" y1="68" x2="146" y2="68" stroke="#FFD700" stroke-width="0.7" opacity="0.5"/>
  <line x1="54" y1="80" x2="146" y2="80" stroke="#FFD700" stroke-width="0.7" opacity="0.5"/>
  <line x1="54" y1="92" x2="146" y2="92" stroke="#FFD700" stroke-width="0.7" opacity="0.5"/>
  <line x1="54" y1="104" x2="146" y2="104" stroke="#FFD700" stroke-width="0.7" opacity="0.5"/>
  <line x1="54" y1="116" x2="146" y2="116" stroke="#FFD700" stroke-width="0.7" opacity="0.5"/>
  <line x1="54" y1="128" x2="146" y2="128" stroke="#FFD700" stroke-width="0.7" opacity="0.5"/>
  <line x1="54" y1="140" x2="146" y2="140" stroke="#FFD700" stroke-width="0.7" opacity="0.5"/>
  <line x1="75" y1="56" x2="75" y2="155" stroke="#FFD700" stroke-width="0.7" opacity="0.5"/>
  <line x1="100" y1="56" x2="100" y2="155" stroke="#FFD700" stroke-width="0.7" opacity="0.5"/>
  <line x1="125" y1="56" x2="125" y2="155" stroke="#FFD700" stroke-width="0.7" opacity="0.5"/>
  <!-- 12 Gemstones in 4x3 grid -->
  
  <rect x="53" y="58" width="18" height="18" rx="4"
        fill="#E83030" stroke="#FFD700" stroke-width="1.5"/>
  <rect x="56" y="61" width="12" height="12" rx="3"
        fill="#FF6060" opacity="0.55"/>
  <rect x="79" y="58" width="18" height="18" rx="4"
        fill="#70C030" stroke="#FFD700" stroke-width="1.5"/>
  <rect x="82" y="61" width="12" height="12" rx="3"
        fill="#A0F840" opacity="0.55"/>
  <rect x="105" y="58" width="18" height="18" rx="4"
        fill="#A0B8C0" stroke="#FFD700" stroke-width="1.5"/>
  <rect x="108" y="61" width="12" height="12" rx="3"
        fill="#D8F0F8" opacity="0.55"/>
  <rect x="53" y="84" width="18" height="18" rx="4"
        fill="#40A8C0" stroke="#FFD700" stroke-width="1.5"/>
  <rect x="56" y="87" width="12" height="12" rx="3"
        fill="#80E8FF" opacity="0.55"/>
  <rect x="79" y="84" width="18" height="18" rx="4"
        fill="#4060C8" stroke="#FFD700" stroke-width="1.5"/>
  <rect x="82" y="87" width="12" height="12" rx="3"
        fill="#80A0FF" opacity="0.55"/>
  <rect x="105" y="84" width="18" height="18" rx="4"
        fill="#FF8820" stroke="#FFD700" stroke-width="1.5"/>
  <rect x="108" y="87" width="12" height="12" rx="3"
        fill="#FFB060" opacity="0.55"/>
  <rect x="53" y="110" width="18" height="18" rx="4"
        fill="#C060A0" stroke="#FFD700" stroke-width="1.5"/>
  <rect x="56" y="113" width="12" height="12" rx="3"
        fill="#F0A0D0" opacity="0.55"/>
  <rect x="79" y="110" width="18" height="18" rx="4"
        fill="#88B838" stroke="#FFD700" stroke-width="1.5"/>
  <rect x="82" y="113" width="12" height="12" rx="3"
        fill="#C0F058" opacity="0.55"/>
  <rect x="105" y="110" width="18" height="18" rx="4"
        fill="#C01828" stroke="#FFD700" stroke-width="1.5"/>
  <rect x="108" y="113" width="12" height="12" rx="3"
        fill="#F04060" opacity="0.55"/>
  <rect x="53" y="136" width="18" height="18" rx="4"
        fill="#A080D0" stroke="#FFD700" stroke-width="1.5"/>
  <rect x="56" y="139" width="12" height="12" rx="3"
        fill="#D0B8FF" opacity="0.55"/>
  <rect x="79" y="136" width="18" height="18" rx="4"
        fill="#D8C850" stroke="#FFD700" stroke-width="1.5"/>
  <rect x="82" y="139" width="12" height="12" rx="3"
        fill="#FFF098" opacity="0.55"/>
  <rect x="105" y="136" width="18" height="18" rx="4"
        fill="#108838" stroke="#FFD700" stroke-width="1.5"/>
  <rect x="108" y="139" width="12" height="12" rx="3"
        fill="#40D060" opacity="0.55"/>
  <!-- Gold chains at top -->
  <path d="M62 52 Q62 38 56 30 Q52 24 56 22 Q60 20 62 26" fill="none" stroke="#FFD700" stroke-width="2.5" stroke-linecap="round"/>
  <path d="M138 52 Q138 38 144 30 Q148 24 144 22 Q140 20 138 26" fill="none" stroke="#FFD700" stroke-width="2.5" stroke-linecap="round"/>
  <!-- Title -->
  <text x="100" y="16" text-anchor="middle" fill="#FFD700" font-family="serif" font-size="11" font-weight="bold">HOSHEN · חֹשֶׁן</text>
  <text x="100" y="28" text-anchor="middle" fill="#C5A020" font-family="sans-serif" font-size="8">Exodus 28:15 — Breastplate of Judgment</text>
</svg>