<?xml version="1.0" encoding="UTF-8"?>
<!-- Category: backgrounds | Scene: Outdoor Biblical Ruins (stone arches, sand, olive trees) -->
<!-- Identified from reference art image 4 — sandy outdoor scene with stone structures -->
<svg xmlns="http://www.w3.org/2000/svg" width="480" height="320" viewBox="0 0 480 320">
  <defs>
    <linearGradient id="osky" x1="0" y1="0" x2="0" y2="1">
      <stop offset="0%" stop-color="#87CEEB"/>
      <stop offset="70%" stop-color="#D4E8F4"/>
      <stop offset="100%" stop-color="#F0D8A0"/>
    </linearGradient>
    <linearGradient id="osand" x1="0" y1="0" x2="0" y2="1">
      <stop offset="0%" stop-color="#E9D5B3"/>
      <stop offset="100%" stop-color="#C4A870"/>
    </linearGradient>
  </defs>
  <!-- Sky -->
  <rect width="480" height="220" fill="url(#osky)"/>
  <!-- Far hills (ochre/sand) -->
  <path d="M0 180 Q60 155 120 170 Q180 185 240 160 Q300 140 360 165 Q420 180 480 160 L480 220 L0 220 Z" fill="#D4B870" opacity="0.7"/>
  <!-- Ground -->
  <rect x="0" y="205" width="480" height="115" fill="url(#osand)"/>
  <!-- Stone paving in center -->
  <rect x="140" y="205" width="200" height="115" fill="#C8B888" opacity="0.7"/>
  <line x1="140" y1="235" x2="340" y2="235" stroke="#A89860" stroke-width="1" opacity="0.5"/>
  <line x1="140" y1="260" x2="340" y2="260" stroke="#A89860" stroke-width="1" opacity="0.5"/>
  <line x1="140" y1="285" x2="340" y2="285" stroke="#A89860" stroke-width="1" opacity="0.5"/>
  <line x1="190" y1="205" x2="190" y2="320" stroke="#A89860" stroke-width="0.8" opacity="0.4"/>
  <line x1="240" y1="205" x2="240" y2="320" stroke="#A89860" stroke-width="0.8" opacity="0.4"/>
  <line x1="290" y1="205" x2="290" y2="320" stroke="#A89860" stroke-width="0.8" opacity="0.4"/>
  <!-- Left stone arch (partial ruin) -->
  <rect x="10" y="120" width="40" height="120" rx="5" fill="#A89068"/>
  <rect x="80" y="120" width="40" height="120" rx="5" fill="#A89068"/>
  <path d="M10 120 Q50 80 120 120" fill="#A89068"/>
  <path d="M14 120 Q50 84 116 120" fill="none" stroke="#908050" stroke-width="2" opacity="0.4"/>
  <!-- Arch stone joints -->
  <path d="M50 85 L54 100" fill="none" stroke="#806040" stroke-width="1.5" opacity="0.5"/>
  <path d="M64 82 L66 98" fill="none" stroke="#806040" stroke-width="1.5" opacity="0.5"/>
  <path d="M78 88 L78 104" fill="none" stroke="#806040" stroke-width="1.5" opacity="0.5"/>
  <!-- Right stone arch -->
  <rect x="330" y="120" width="40" height="120" rx="5" fill="#A89068"/>
  <rect x="400" y="100" width="40" height="140" rx="5" fill="#A89068"/>
  <path d="M330 120 Q370 75 440 100" fill="#A89068"/>
  <!-- Olive tree (left) -->
  <rect x="150" y="150" width="8" height="80" rx="3" fill="#5C3C18"/>
  <ellipse cx="154" cy="140" rx="28" ry="22" fill="#6B7A4F"/>
  <ellipse cx="142" cy="148" rx="18" ry="14" fill="#7A8A58"/>
  <ellipse cx="166" cy="145" rx="16" ry="12" fill="#7A8A58"/>
  <!-- Small olives -->
  <circle cx="148" cy="138" r="3" fill="#5A8030"/>
  <circle cx="162" cy="136" r="3" fill="#8060A0"/>
  <!-- Olive tree (right) -->
  <rect x="324" y="155" width="8" height="75" rx="3" fill="#5C3C18"/>
  <ellipse cx="328" cy="145" rx="26" ry="20" fill="#6B7A4F"/>
  <ellipse cx="316" cy="152" rx="18" ry="14" fill="#7A8A58"/>
  <ellipse cx="340" cy="150" rx="16" ry="12" fill="#7A8A58"/>
  <!-- Rock boulders (foreground) -->
  <ellipse cx="60" cy="296" rx="36" ry="20" fill="#B8A878"/>
  <ellipse cx="52" cy="292" rx="24" ry="14" fill="#D0C090" opacity="0.6"/>
  <ellipse cx="420" cy="292" rx="32" ry="18" fill="#B8A878"/>
  <!-- Distant structure hint -->
  <rect x="220" y="140" width="25" height="65" rx="2" fill="#C8B888" opacity="0.6"/>
  <rect x="235" y="130" width="15" height="75" rx="2" fill="#C8B888" opacity="0.5"/>
</svg>