<?xml version="1.0" encoding="UTF-8"?>
<!-- Category: tools | Tool: Round Flatbread (Asher tribe — "rich food") -->
<!-- Genesis 49:20 — "Asher's food will be rich; he will provide delicacies" -->
<svg xmlns="http://www.w3.org/2000/svg" width="80" height="64" viewBox="0 0 80 64">
  <!-- Loaf shadow -->
  <ellipse cx="42" cy="58" rx="28" ry="6" fill="#3A2000" opacity="0.2"/>
  <!-- Bread body -->
  <path d="M12 44 Q10 24 22 14 Q32 6 48 8 Q62 10 68 26 Q72 38 68 48 Q60 58 40 58 Q18 58 12 44 Z" fill="#C87820"/>
  <!-- Baked surface highlight -->
  <path d="M18 38 Q16 22 28 14 Q38 8 50 12 Q62 18 64 32" fill="none" stroke="#E8A030" stroke-width="4" stroke-linecap="round" opacity="0.5"/>
  <path d="M22 36 Q22 24 32 18 Q42 12 52 18" fill="none" stroke="#F4C050" stroke-width="3" stroke-linecap="round" opacity="0.4"/>
  <!-- Score marks (cut pattern on top) -->
  <path d="M28 30 Q40 26 52 30" fill="none" stroke="#A06010" stroke-width="1.5" stroke-linecap="round"/>
  <path d="M24 36 Q40 32 56 36" fill="none" stroke="#A06010" stroke-width="1.5" stroke-linecap="round"/>
  <!-- Sesame seeds -->
  <ellipse cx="34" cy="20" rx="2.5" ry="1" fill="#E0C870" transform="rotate(-20 34 20)"/>
  <ellipse cx="44" cy="18" rx="2.5" ry="1" fill="#E0C870" transform="rotate(10 44 18)"/>
  <ellipse cx="54" cy="22" rx="2.5" ry="1" fill="#E0C870" transform="rotate(-10 54 22)"/>
  <ellipse cx="30" cy="28" rx="2.5" ry="1" fill="#E0C870" transform="rotate(15 30 28)"/>
  <ellipse cx="50" cy="28" rx="2.5" ry="1" fill="#E0C870" transform="rotate(-5 50 28)"/>
  <!-- Crust darkening at edges -->
  <path d="M12 44 Q10 24 22 14 Q32 6 48 8 Q62 10 68 26 Q72 38 68 48 Q60 58 40 58 Q18 58 12 44 Z"
        fill="none" stroke="#8B5010" stroke-width="3" opacity="0.6"/>
</svg>