<?xml version="1.0" encoding="UTF-8"?>
<!-- Category: tools | Tool: Cedar Plank (hand-carved cedar wood) -->
<!-- 1 Kings 6:15 — "He lined its interior walls with cedar boards" -->
<svg xmlns="http://www.w3.org/2000/svg" width="100" height="48" viewBox="0 0 100 48">
  <!-- Main plank body -->
  <rect x="4" y="8" width="92" height="32" rx="4" fill="#B07848"/>
  <!-- Wood grain lines -->
  <path d="M8 16 Q50 14 92 16" fill="none" stroke="#905830" stroke-width="0.8" opacity="0.6"/>
  <path d="M8 22 Q50 20 92 22" fill="none" stroke="#905830" stroke-width="0.8" opacity="0.6"/>
  <path d="M8 28 Q50 26 92 28" fill="none" stroke="#905830" stroke-width="0.8" opacity="0.6"/>
  <path d="M8 34 Q50 32 92 34" fill="none" stroke="#905830" stroke-width="0.8" opacity="0.6"/>
  <!-- Knot rings (natural wood) -->
  <ellipse cx="30" cy="24" rx="7" ry="5" fill="none" stroke="#7A4820" stroke-width="1.2" opacity="0.7"/>
  <ellipse cx="30" cy="24" rx="3" ry="2.5" fill="#7A4820" opacity="0.4"/>
  <ellipse cx="72" cy="20" rx="6" ry="4" fill="none" stroke="#7A4820" stroke-width="1.2" opacity="0.6"/>
  <!-- Carved leaf motif (as referenced in copilot instructions) -->
  <path d="M46 14 Q50 10 54 14 Q50 18 46 14 Z" fill="#906038" opacity="0.7"/>
  <path d="M46 20 Q50 16 54 20 Q50 24 46 20 Z" fill="#906038" opacity="0.7"/>
  <path d="M46 26 Q50 22 54 26 Q50 30 46 26 Z" fill="#906038" opacity="0.7"/>
  <!-- Plank end grain (visible growth rings) -->
  <ellipse cx="96" cy="24" rx="3" ry="16" fill="#996040" opacity="0.5"/>
  <ellipse cx="4" cy="24" rx="3" ry="16" fill="#996040" opacity="0.5"/>
  <!-- Highlight (top surface catch light) -->
  <rect x="4" y="8" width="92" height="6" rx="4" fill="#D09850" opacity="0.3"/>
</svg>