<?xml version="1.0" encoding="UTF-8"?>
<!-- Category: tools | Tool: Clay/Terracotta Water Jug -->
<!-- John 4:14 — "whoever drinks the water I give will never thirst again" -->
<svg xmlns="http://www.w3.org/2000/svg" width="64" height="96" viewBox="0 0 64 96">
  <!-- Jug body -->
  <path d="M20 36 Q10 50 12 70 Q14 90 32 92 Q50 90 52 70 Q54 50 44 36 Z" fill="#C87840"/>
  <path d="M22 38 Q14 52 16 70 Q18 86 32 88 Q46 86 48 70 Q50 52 42 38 Z" fill="#E09050" opacity="0.5"/>
  <!-- Neck and rim -->
  <ellipse cx="32" cy="36" rx="12" ry="6" fill="#B86830"/>
  <path d="M20 36 Q20 20 32 16 Q44 20 44 36" fill="#C87840"/>
  <path d="M22 36 Q22 22 32 18 Q42 22 42 36" fill="#D88848" opacity="0.4"/>
  <!-- Jug opening rim -->
  <ellipse cx="32" cy="16" rx="12" ry="5" fill="#B86830"/>
  <ellipse cx="32" cy="15" rx="10" ry="3.5" fill="#401000"/>
  <!-- Handle -->
  <path d="M44 40 Q60 48 58 64 Q56 76 44 76" fill="none" stroke="#B86830" stroke-width="7" stroke-linecap="round"/>
  <path d="M44 42 Q58 50 56 64 Q54 74 44 74" fill="none" stroke="#C87840" stroke-width="3" stroke-linecap="round" opacity="0.4"/>
  <!-- Pottery rings (thrown on wheel) -->
  <ellipse cx="32" cy="55" rx="20" ry="3" fill="none" stroke="#A06020" stroke-width="1" opacity="0.5"/>
  <ellipse cx="32" cy="65" rx="20" ry="3" fill="none" stroke="#A06020" stroke-width="1" opacity="0.5"/>
  <ellipse cx="32" cy="75" rx="18" ry="3" fill="none" stroke="#A06020" stroke-width="1" opacity="0.5"/>
  <!-- Base ring -->
  <ellipse cx="32" cy="91" rx="14" ry="4" fill="#A06020" opacity="0.7"/>
</svg>