<?xml version="1.0" encoding="UTF-8"?>
<!-- Category: tools | Tool: Woven Fishing Net (Zebulun tribe) -->
<!-- Matthew 4:19 — "I will send you out to fish for people" (referenced in teaching) -->
<svg xmlns="http://www.w3.org/2000/svg" width="96" height="88" viewBox="0 0 96 88">
  <!-- Net body (triangular casting net) -->
  <path d="M48 4 Q72 30 88 72 Q72 80 48 84 Q24 80 8 72 Q24 30 48 4 Z"
        fill="none" stroke="#8B7040" stroke-width="1.5" opacity="0.9"/>
  <!-- Horizontal weave lines -->
  <path d="M28 28 Q48 24 68 28" fill="none" stroke="#8B7040" stroke-width="1.2"/>
  <path d="M18 46 Q48 40 78 46" fill="none" stroke="#8B7040" stroke-width="1.2"/>
  <path d="M12 62 Q48 56 84 62" fill="none" stroke="#8B7040" stroke-width="1.2"/>
  <path d="M10 72 Q48 68 86 72" fill="none" stroke="#8B7040" stroke-width="1.2"/>
  <!-- Radial weave lines (from top knot outward) -->
  <path d="M48 4 Q36 40 20 72" fill="none" stroke="#8B7040" stroke-width="1.2"/>
  <path d="M48 4 Q42 40 30 72" fill="none" stroke="#8B7040" stroke-width="1.2"/>
  <path d="M48 4 Q48 40 48 84" fill="none" stroke="#8B7040" stroke-width="1.2"/>
  <path d="M48 4 Q54 40 66 72" fill="none" stroke="#8B7040" stroke-width="1.2"/>
  <path d="M48 4 Q60 40 76 72" fill="none" stroke="#8B7040" stroke-width="1.2"/>
  <!-- Lead weights (sinkers around bottom edge) -->
  <circle cx="8" cy="72" r="3.5" fill="#808090"/>
  <circle cx="26" cy="80" r="3.5" fill="#808090"/>
  <circle cx="48" cy="84" r="3.5" fill="#808090"/>
  <circle cx="70" cy="80" r="3.5" fill="#808090"/>
  <circle cx="88" cy="72" r="3.5" fill="#808090"/>
  <!-- Top knot -->
  <circle cx="48" cy="4" r="5" fill="#6B5030"/>
  <path d="M42 4 L48 0 L54 4" fill="#5A4020"/>
  <!-- Rope coil (gathered net top) -->
  <path d="M36 6 Q28 2 24 8" fill="none" stroke="#8B7040" stroke-width="2" stroke-linecap="round"/>
  <path d="M60 6 Q68 2 72 8" fill="none" stroke="#8B7040" stroke-width="2" stroke-linecap="round"/>
</svg>