<?xml version="1.0" encoding="UTF-8"?>
<!-- Category: tools | Tool: Clay Oil Lamp (single flame) -->
<!-- Exodus 27:20 — "oil of pressed olives for the light, to keep the lamps burning" -->
<svg xmlns="http://www.w3.org/2000/svg" width="64" height="80" viewBox="0 0 64 80">
  <!-- Flame -->
  <path d="M32 18 Q28 10 32 4 Q36 10 32 18 Z" fill="#FF8C00"/>
  <path d="M32 18 Q30 12 32 6 Q34 12 32 18 Z" fill="#FFE040" opacity="0.7"/>
  <!-- Wick -->
  <rect x="31" y="18" width="2" height="6" rx="1" fill="#604020"/>
  <!-- Lamp bowl (terracotta) -->
  <path d="M14 50 Q12 38 20 32 Q26 28 32 28 Q38 28 44 32 Q52 38 50 50 Z" fill="#C86030"/>
  <path d="M14 50 Q16 42 24 36 Q28 30 32 30 Q36 30 40 34 Q46 40 48 48" fill="#E07840" opacity="0.4"/>
  <!-- Lamp body base -->
  <ellipse cx="32" cy="52" rx="20" ry="12" fill="#C86030"/>
  <ellipse cx="32" cy="52" rx="18" ry="10" fill="#D87040"/>
  <!-- Spout (nozzle where wick sits) -->
  <path d="M48 46 Q56 44 58 48 Q58 52 52 54 Q48 54 46 52 Z" fill="#B05020"/>
  <!-- Handle -->
  <path d="M14 46 Q6 44 6 50 Q6 56 14 56" fill="none" stroke="#C86030" stroke-width="4" stroke-linecap="round"/>
  <!-- Oil fill hole -->
  <circle cx="28" cy="48" r="4" fill="#804020"/>
  <circle cx="28" cy="48" r="2.5" fill="#401000"/>
  <!-- Base ring -->
  <ellipse cx="32" cy="62" rx="14" ry="5" fill="#A05020" opacity="0.7"/>
  <!-- Glow halo -->
  <circle cx="32" cy="12" r="18" fill="#FFCC00" opacity="0.12"/>
</svg>