<?xml version="1.0" encoding="UTF-8"?>
<!-- Category: nature | Item: Butterfly (colorful, front-view open wings) -->
<!-- Identified from reference art — pastel pink/blue/gold wings -->
<!-- Science: Butterflies taste with their feet (tarsal chemoreceptors) -->
<svg xmlns="http://www.w3.org/2000/svg" width="80" height="72" viewBox="0 0 80 72">
  <defs>
    <radialGradient id="ulw" cx="30%" cy="40%" r="65%">
      <stop offset="0%" stop-color="#F0D0E8"/>
      <stop offset="45%" stop-color="#E090B8"/>
      <stop offset="100%" stop-color="#C06090"/>
    </radialGradient>
    <radialGradient id="urw" cx="70%" cy="40%" r="65%">
      <stop offset="0%" stop-color="#F0D0E8"/>
      <stop offset="45%" stop-color="#E090B8"/>
      <stop offset="100%" stop-color="#C06090"/>
    </radialGradient>
    <radialGradient id="llw" cx="30%" cy="50%" r="65%">
      <stop offset="0%" stop-color="#D0E8F8"/>
      <stop offset="45%" stop-color="#80B8E8"/>
      <stop offset="100%" stop-color="#4080C0"/>
    </radialGradient>
    <radialGradient id="lrw" cx="70%" cy="50%" r="65%">
      <stop offset="0%" stop-color="#D0E8F8"/>
      <stop offset="45%" stop-color="#80B8E8"/>
      <stop offset="100%" stop-color="#4080C0"/>
    </radialGradient>
  </defs>
  <!-- Upper left wing -->
  <ellipse cx="22" cy="26" rx="20" ry="24" fill="url(#ulw)" transform="rotate(-20 22 26)"/>
  <!-- Upper right wing -->
  <ellipse cx="58" cy="26" rx="20" ry="24" fill="url(#urw)" transform="rotate(20 58 26)"/>
  <!-- Lower left wing -->
  <ellipse cx="20" cy="50" rx="16" ry="16" fill="url(#llw)" transform="rotate(-10 20 50)"/>
  <!-- Lower right wing -->
  <ellipse cx="60" cy="50" rx="16" ry="16" fill="url(#lrw)" transform="rotate(10 60 50)"/>
  <!-- Wing vein lines -->
  <path d="M40 36 Q28 22 14 10" fill="none" stroke="#A04070" stroke-width="0.8" opacity="0.5"/>
  <path d="M40 36 Q52 22 66 10" fill="none" stroke="#A04070" stroke-width="0.8" opacity="0.5"/>
  <path d="M40 38 Q26 44 14 56" fill="none" stroke="#2060A0" stroke-width="0.8" opacity="0.4"/>
  <path d="M40 38 Q54 44 66 56" fill="none" stroke="#2060A0" stroke-width="0.8" opacity="0.4"/>
  <!-- Wing spots (gold, sunny) -->
  <circle cx="30" cy="18" r="4" fill="#FFD700" opacity="0.7"/>
  <circle cx="50" cy="18" r="4" fill="#FFD700" opacity="0.7"/>
  <circle cx="22" cy="48" r="3" fill="#FFD700" opacity="0.6"/>
  <circle cx="58" cy="48" r="3" fill="#FFD700" opacity="0.6"/>
  <!-- Wing edges (subtle dark border) -->
  <ellipse cx="22" cy="26" rx="20" ry="24" fill="none" stroke="#804060" stroke-width="1.2" transform="rotate(-20 22 26)"/>
  <ellipse cx="58" cy="26" rx="20" ry="24" fill="none" stroke="#804060" stroke-width="1.2" transform="rotate(20 58 26)"/>
  <!-- Body -->
  <ellipse cx="40" cy="38" rx="3.5" ry="16" fill="#2A1808"/>
  <!-- Head -->
  <circle cx="40" cy="20" r="4" fill="#2A1808"/>
  <!-- Antennae -->
  <path d="M39 17 Q34 10 30 6" fill="none" stroke="#2A1808" stroke-width="1.2" stroke-linecap="round"/>
  <path d="M41 17 Q46 10 50 6" fill="none" stroke="#2A1808" stroke-width="1.2" stroke-linecap="round"/>
  <circle cx="30" cy="6" r="2" fill="#2A1808"/>
  <circle cx="50" cy="6" r="2" fill="#2A1808"/>
</svg>