<svg xmlns="http://www.w3.org/2000/svg" width="72" height="64" viewBox="0 0 72 64">
  <defs>
    <radialGradient id="wl" cx="40%" cy="40%" r="60%"><stop offset="0%" stop-color="#FFCCF0"/><stop offset="100%" stop-color="#FF78C8"/></radialGradient>
    <radialGradient id="wr" cx="60%" cy="40%" r="60%"><stop offset="0%" stop-color="#C8F0FF"/><stop offset="100%" stop-color="#78C8FF"/></radialGradient>
  </defs>
  <!-- Upper left wing -->
  <ellipse cx="20" cy="22" rx="19" ry="16" fill="url(#wl)" opacity="0.92" transform="rotate(-20 20 22)"/>
  <!-- Upper right wing -->
  <ellipse cx="52" cy="22" rx="19" ry="16" fill="url(#wr)" opacity="0.92" transform="rotate(20 52 22)"/>
  <!-- Lower left wing -->
  <ellipse cx="18" cy="42" rx="13" ry="10" fill="#FF88D8" opacity="0.8" transform="rotate(18 18 42)"/>
  <!-- Lower right wing -->
  <ellipse cx="54" cy="42" rx="13" ry="10" fill="#88D8FF" opacity="0.8" transform="rotate(-18 54 42)"/>
  <!-- Wing spots -->
  <circle cx="18" cy="20" r="3.5" fill="#FFFFFF" opacity="0.6"/>
  <circle cx="54" cy="20" r="3.5" fill="#FFFFFF" opacity="0.6"/>
  <circle cx="14" cy="44" r="2.2" fill="#FF44A0" opacity="0.7"/>
  <circle cx="58" cy="44" r="2.2" fill="#44A0FF" opacity="0.7"/>
  <!-- Body -->
  <ellipse cx="36" cy="34" rx="3.5" ry="18" fill="#2A1A3A" opacity="0.88"/>
  <!-- Antennae -->
  <line x1="34" y1="17" x2="24" y2="5" stroke="#2A1A3A" stroke-width="1.2"/>
  <line x1="38" y1="17" x2="48" y2="5" stroke="#2A1A3A" stroke-width="1.2"/>
  <circle cx="24" cy="4.5" r="2.2" fill="#FF78C8"/>
  <circle cx="48" cy="4.5" r="2.2" fill="#78C8FF"/>
  <!-- Big eyes -->
  <circle cx="34" cy="18" r="2.8" fill="#FFFFFF"/>
  <circle cx="34" cy="18" r="1.8" fill="#1A1A3A"/>
  <circle cx="38" cy="18" r="2.8" fill="#FFFFFF"/>
  <circle cx="38" cy="18" r="1.8" fill="#1A1A3A"/>
  <circle cx="33" cy="17" r="0.9" fill="white" opacity="0.9"/>
  <circle cx="37" cy="17" r="0.9" fill="white" opacity="0.9"/>
</svg>