<svg xmlns="http://www.w3.org/2000/svg" width="72" height="80" viewBox="0 0 72 80">
  <!-- Olive branch — Tribe of Asher, Genesis 49:20 -->
  <!-- Main branch -->
  <path d="M36 76 Q32 60 28 44 Q24 28 20 14" fill="none" stroke="#6B7A4F" stroke-width="3.5" stroke-linecap="round"/>
  <!-- Secondary branch -->
  <path d="M28 44 Q36 36 44 28 Q52 20 56 10" fill="none" stroke="#6B7A4F" stroke-width="2.5" stroke-linecap="round"/>
  <path d="M28 44 Q22 36 18 28" fill="none" stroke="#6B7A4F" stroke-width="2" stroke-linecap="round"/>
  <!-- Olive leaves — pairs along the branch -->
  <!-- Left leaves -->
  <ellipse cx="22" cy="38" rx="9" ry="5" fill="#8BA060" transform="rotate(-35 22 38)"/>
  <ellipse cx="24" cy="28" rx="9" ry="5" fill="#6B8040" transform="rotate(-40 24 28)"/>
  <ellipse cx="20" cy="20" rx="8" ry="4.5" fill="#8BA060" transform="rotate(-45 20 20)"/>
  <!-- Right leaves -->
  <ellipse cx="34" cy="52" rx="9" ry="5" fill="#8BA060" transform="rotate(30 34 52)"/>
  <ellipse cx="40" cy="40" rx="9" ry="5" fill="#6B8040" transform="rotate(35 40 40)"/>
  <ellipse cx="48" cy="26" rx="8" ry="4.5" fill="#8BA060" transform="rotate(40 48 26)"/>
  <ellipse cx="52" cy="16" rx="7" ry="4" fill="#6B8040" transform="rotate(30 52 16)"/>
  <!-- Olive fruits (small purple-black ovals) -->
  <ellipse cx="26" cy="34" rx="4" ry="5.5" fill="#5A3A5A"/>
  <ellipse cx="26" cy="34" rx="2.5" ry="4" fill="#7A5A7A" opacity="0.6"/>
  <ellipse cx="44" cy="36" rx="4" ry="5.5" fill="#5A3A5A"/>
  <ellipse cx="44" cy="36" rx="2.5" ry="4" fill="#7A5A7A" opacity="0.6"/>
  <ellipse cx="36" cy="22" rx="3.5" ry="5" fill="#5A3A5A"/>
  <ellipse cx="54" cy="20" rx="3.5" ry="5" fill="#5A3A5A"/>
  <!-- Leaf veins -->
  <line x1="16" y1="39" x2="28" y2="37" stroke="#C8D8A0" stroke-width="0.6" opacity="0.7"/>
  <line x1="18" y1="29" x2="30" y2="27" stroke="#C8D8A0" stroke-width="0.6" opacity="0.7"/>
</svg>