<?xml version="1.0" encoding="UTF-8" standalone="no"?>
<!-- Created with Inkscape (http://www.inkscape.org/) -->

<svg
   width="21.379225mm"
   height="21.502901mm"
   viewBox="0 0 21.379225 21.502901"
   version="1.1"
   id="svg1"
   xml:space="preserve"
   sodipodi:docname="ToDot.svg"
   inkscape:export-filename="ToDot.png"
   inkscape:export-xdpi="96"
   inkscape:export-ydpi="96"
   xmlns:inkscape="http://www.inkscape.org/namespaces/inkscape"
   xmlns:sodipodi="http://sodipodi.sourceforge.net/DTD/sodipodi-0.dtd"
   xmlns="http://www.w3.org/2000/svg"
   xmlns:svg="http://www.w3.org/2000/svg"><sodipodi:namedview
     id="namedview1"
     pagecolor="#ffffff"
     bordercolor="#000000"
     borderopacity="0.25"
     inkscape:showpageshadow="2"
     inkscape:pageopacity="0.0"
     inkscape:pagecheckerboard="0"
     inkscape:deskcolor="#d1d1d1"
     inkscape:document-units="mm"
     inkscape:zoom="5.5090348"
     inkscape:cx="393.71688"
     inkscape:cy="516.51516"
     inkscape:window-width="1920"
     inkscape:window-height="991"
     inkscape:window-x="-9"
     inkscape:window-y="-9"
     inkscape:window-maximized="1"
     inkscape:current-layer="g1"><inkscape:page
       x="0"
       y="0"
       width="21.379225"
       height="21.502901"
       id="page1"
       margin="0"
       bleed="0" /></sodipodi:namedview><defs
     id="defs1" /><g
     inkscape:label="Layer 1"
     inkscape:groupmode="layer"
     id="layer1"
     transform="translate(-92.691184,-122.09486)"><g
       id="g1"
       transform="matrix(0.01608522,0,0,0.01608522,93.684704,126.14082)"><path
         d="m 0,0 c 0,0 -0.325,1.994 -0.515,1.976 l -36.182,-3.491 c -2.879,-0.278 -5.115,-2.574 -5.317,-5.459 l -0.994,-14.247 -27.992,-1.997 -1.904,12.912 c -0.424,2.872 -2.932,5.037 -5.835,5.037 h -38.188 c -2.902,0 -5.41,-2.165 -5.834,-5.037 l -1.905,-12.912 -27.992,1.997 -0.994,14.247 c -0.202,2.886 -2.438,5.182 -5.317,5.46 l -36.2,3.49 c -0.187,0.018 -0.324,-1.978 -0.511,-1.978 l -0.049,-7.83 30.658,-4.944 1.004,-14.374 c 0.203,-2.91 2.551,-5.263 5.463,-5.472 l 38.551,-2.75 c 0.146,-0.01 0.29,-0.016 0.434,-0.016 2.897,0 5.401,2.166 5.825,5.038 l 1.959,13.286 h 28.005 l 1.959,-13.286 c 0.423,-2.871 2.93,-5.037 5.831,-5.037 0.142,0 0.284,0.005 0.423,0.015 l 38.556,2.75 c 2.911,0.209 5.26,2.562 5.463,5.472 l 1.003,14.374 30.645,4.966 z"
         fill="#ffffff"
         transform="matrix(4.162611,0,0,-4.162611,919.24059,673.15214)"
         id="path1" /><path
         d="m 417.61544,76.866711 c -42.39203,9.424151 -84.33963,22.553879 -123.65549,42.342929 0.89912,34.71618 3.16066,67.98933 7.71039,101.77725 -15.26845,9.78213 -31.32661,18.16943 -45.58772,29.62077 -14.49005,11.14748 -29.28664,21.82013 -42.40719,34.85743 -26.21196,-17.33728 -53.95289,-33.64753 -82.53337,-48.02935 -30.80749,33.15519 -59.612548,68.96142 -83.143788,109.00574 18.493057,29.02876 38.333821,58.20587 56.703548,80.95917 v 197.77169 25.12305 12.11175 l -0.25701,-0.0321 c 0.0624,17.11987 0.25701,35.8779 0.25701,39.61217 0,168.23283 181.49899,249.07974 407.0126,250.00963 h 0.28914 0.28914 c 225.51361,-0.92989 406.94834,-81.7768 406.94834,-250.00963 0,-3.80279 0.19042,-22.48251 0.25702,-39.61217 l -0.25702,0.0321 v -8.86696 l 0.0643,-0.0321 v -226.1074 c 21.21649,-26.70927 41.31117,-56.17169 56.70355,-80.95917 -23.52292,-40.04432 -52.36843,-75.85055 -83.17592,-109.00574 -28.57216,14.38182 -56.32141,30.69207 -82.53337,48.02935 -13.11639,-13.0373 -27.8642,-23.70995 -42.37506,-34.85743 -14.25695,-11.45134 -30.34841,-19.83864 -45.58773,-29.62077 4.53725,-33.78792 6.80711,-67.06107 7.7104,-101.77725 C 690.72719,99.42062 648.77243,86.290892 606.35959,76.866741 589.42608,105.32651 573.93745,136.14624 560.4506,166.27522 c -15.99276,-2.67239 -32.03724,-3.66372 -48.12573,-3.8552 v -0.0321 c -0.1124,0 -0.22553,0.0321 -0.32127,0.0321 -0.0999,0 -0.22137,-0.0321 -0.32127,-0.0321 v 0.0321 c -16.11763,0.19148 -32.16094,1.18281 -48.15785,3.8552 -13.47854,-30.12898 -28.95052,-60.94871 -45.909,-89.408479 z"
         style="fill:#478cbf"
         id="path12" /><path
         d="m 0,0 c 0,-12.052 -9.765,-21.815 -21.813,-21.815 -12.042,0 -21.81,9.763 -21.81,21.815 0,12.044 9.768,21.802 21.81,21.802 C -9.765,21.802 0,12.044 0,0"
         fill="#ffffff"
         transform="matrix(4.162611,0,0,-4.162611,389.21484,527.15132)"
         id="path4" /><path
         d="m 399.036,492.42283 c 0,33.27591 -26.96956,60.24547 -60.27045,60.24547 -33.28424,0 -60.27044,-26.96956 -60.27044,-60.24547 0,-33.27591 26.9862,-60.27044 60.27044,-60.27044 33.30089,0 60.27045,26.99453 60.27045,60.27044"
         fill="#414042"
         id="path5"
         style="stroke-width:4.16261" /><path
         d="m 0,0 c -3.878,0 -7.021,2.858 -7.021,6.381 v 20.081 c 0,3.52 3.143,6.381 7.021,6.381 3.878,0 7.028,-2.861 7.028,-6.381 V 6.381 C 7.028,2.858 3.878,0 0,0"
         fill="#ffffff"
         transform="matrix(4.162611,0,0,-4.162611,511.99336,626.21982)"
         id="path6" /><path
         d="m 0,0 c 0,-12.052 9.765,-21.815 21.815,-21.815 12.041,0 21.808,9.763 21.808,21.815 0,12.044 -9.767,21.802 -21.808,21.802 C 9.765,21.802 0,12.044 0,0"
         fill="#ffffff"
         transform="matrix(4.162611,0,0,-4.162611,634.78706,527.15132)"
         id="path7" /><path
         d="m 688.05356,480.11741 c 0,33.27591 26.96123,60.24547 60.23714,60.24547 33.30921,0 60.27044,-26.96956 60.27044,-60.24547 0,-33.27591 -26.96123,-60.27044 -60.27044,-60.27044 -33.27591,0 -60.23714,26.99453 -60.23714,60.27044"
         fill="#414042"
         id="path8"
         style="stroke-width:4.16261" /><path
         d="m 407.74086,775.92761 c 0,39.44257 36.98475,71.39391 82.62389,71.39391 45.60507,0 82.59741,-31.95134 82.59741,-71.39391 0,-39.41637 -36.99234,-71.35136 -82.59741,-71.35136 -45.63914,0 -82.62389,31.93499 -82.62389,71.35136"
         fill="#ffffff"
         id="path13"
         style="stroke-width:3.52069" /></g><path
       d="m 95.501171,124.8592 a 2.8108194,2.8108194 0 0 0 -2.809987,2.81098 v 13.1166 a 2.8108194,2.8108194 0 0 0 2.809987,2.81098 h 13.117599 a 2.8108194,2.8108194 0 0 0 2.81098,-2.81098 v -5.62097 a 0.93693978,0.93693978 0 0 0 -0.93732,-0.93733 0.93693978,0.93693978 0 0 0 -0.93633,0.93733 v 5.62097 a 0.93693978,0.93693978 0 0 1 -0.93733,0.93733 H 95.501171 a 0.93693978,0.93693978 0 0 1 -0.93633,-0.93733 v -13.1166 a 0.93693978,0.93693978 0 0 1 0.93633,-0.93733 h 5.621969 a 0.93694568,0.93694568 0 0 0 0,-1.87365 z"
       style="stroke-width:0.936938"
       id="path10" /><path
       d="m 111.50683,122.09486 c -0.13035,-1.8e-4 -0.25538,0.0517 -0.34727,0.14418 l -1.37769,1.38286 -3.39153,3.38636 c -0.0915,0.0923 -0.14246,0.21728 -0.14159,0.34726 v 2.07171 c -1.1e-4,0.27004 0.21882,0.48897 0.48886,0.48886 h 2.07171 c 0.1298,7.3e-4 0.25455,-0.0502 0.34674,-0.14159 l 3.38171,-3.38636 1.38803,-1.35857 c 0.19281,-0.19117 0.19281,-0.50285 0,-0.69402 l -2.07223,-2.09651 c -0.0918,-0.0923 -0.21657,-0.14422 -0.34674,-0.14418 z m 0,1.18029 1.38286,1.38286 -1.49848,-1.52724 -0.5784,0.8384 z m -1.38287,1.38286 -2.9876,2.77565 -0.2085,0.35258 0.29809,1.15265 v -1.38338 z"
       style="stroke-width:0.488657"
       id="path9"
       sodipodi:nodetypes="ccccccccccccccccccccccccc" /><text
       xml:space="preserve"
       style="font-size:1.71256px;font-family:Sans;-inkscape-font-specification:'Sans, Normal';writing-mode:lr-tb;direction:ltr;fill:#ffffff;fill-opacity:1;stroke-width:0.0178392"
       x="-5.7272201"
       y="167.34001"
       id="text13"
       transform="matrix(0.69826367,-0.71555414,0.67244963,0.74302289,0,0)"><tspan
         sodipodi:role="line"
         id="tspan13"
         style="fill:#ffffff;stroke-width:0.0178392"
         x="-5.7272201"
         y="167.34001">ToDot</tspan></text></g></svg>
