<svg xmlns="http://www.w3.org/2000/svg" viewBox="0 0 48 48" height="48" width="48">
  <defs>
    <linearGradient y2="100%" x2="100%" y1="0%" x1="0%" id="skin">
      <stop stop-color="#D4A574" offset="0%"></stop>
      <stop stop-color="#B8860B" offset="100%"></stop>
    </linearGradient>
  </defs>
  
  <ellipse fill="#D4A574" ry="12" rx="10" cy="12" cx="24"></ellipse>
  
  <path fill="#8B4513" d="M18 18 Q24 24 30 18 L28 30 Q24 32 20 30 Z"></path>
  
  <circle fill="#FFF" r="1.5" cy="10" cx="20"></circle>
  <circle fill="#FFF" r="1.5" cy="10" cx="28"></circle>
  <circle fill="#000" r="0.5" cy="10" cx="20"></circle>
  <circle fill="#000" r="0.5" cy="10" cx="28"></circle>
  
  <path stroke-width="1" stroke="#8B4513" fill="#F5DEB3" d="M12 24 L36 24 Q36 48 24 48 Q12 48 12 36 Z"></path>
  
  <path fill="#D2B48C" d="M12 36 L16 40 L14 38 Z M36 36 L32 40 L34 38 Z"></path>
  
  <rect fill="#8B4513" rx="1" height="24" width="2" y="20" x="40"></rect>
  
  <circle opacity="0.8" fill="#FFD700" r="4" cy="32" cx="24"></circle>
  <polygon fill="#4169E1" points="24,28 22,34 26,34"></polygon>
</svg>
