<?xml version="1.0" encoding="UTF-8"?>
<!-- ELDER: Elder — Grey Robe | Category: elder_npc | Identified from Twelve Stones reference art -->
<svg xmlns="http://www.w3.org/2000/svg" width="96" height="120" viewBox="0 0 96 120">
  <!-- Body — flowing robe -->
  <ellipse cx="48" cy="105" rx="34" ry="20" fill="#606060"/>
  <path d="M18 68 Q14 90 16 110 L80 110 Q82 90 78 68 Z" fill="#909090"/>
  <path d="M18 68 Q16 76 20 84 L26 84 L22 68 Z" fill="#606060" opacity="0.5"/>
  <!-- Robe sash/belt -->
  <rect x="20" y="72" width="56" height="7" rx="3" fill="#606060" opacity="0.6"/>
  <!-- Neck -->
  <rect x="40" y="52" width="16" height="16" rx="5" fill="#C07858"/>
  <!-- White hair (large, distinguishes elder) -->
  <ellipse cx="48" cy="18" rx="26" ry="18" fill="#DCDCDC"/>
  <circle cx="28" cy="26" r="12" fill="#DCDCDC"/>
  <circle cx="68" cy="26" r="12" fill="#DCDCDC"/>
  <!-- Head -->
  <ellipse cx="48" cy="34" rx="22" ry="24" fill="#C07858"/>
  <!-- Wrinkle lines -->
  <path d="M38 30 Q40 26 43 29" fill="none" stroke="#C07858" opacity="0.4" stroke-width="1.2"/>
  <path d="M53 29 Q56 26 58 30" fill="none" stroke="#C07858" opacity="0.4" stroke-width="1.2"/>
  <path d="M32 40 Q38 42 42 41" fill="none" stroke="#C07858" opacity="0.3" stroke-width="1"/>
  <path d="M54 41 Q58 42 64 40" fill="none" stroke="#C07858" opacity="0.3" stroke-width="1"/>
  <!-- Cheeks (older, subtle) -->
  <ellipse cx="34" cy="44" rx="8" ry="6" fill="#C07850" opacity="0.18"/>
  <ellipse cx="62" cy="44" rx="8" ry="6" fill="#C07850" opacity="0.18"/>
  <!-- Eyes — wise, slightly hooded -->
  <ellipse cx="39" cy="36" rx="5.5" ry="5" fill="white"/>
  <ellipse cx="57" cy="36" rx="5.5" ry="5" fill="white"/>
  <!-- Hooded eyelid line -->
  <path d="M34 35 Q39 30 44 35" fill="#C07858" opacity="0.6"/>
  <path d="M52 35 Q57 30 62 35" fill="#C07858" opacity="0.6"/>
  <ellipse cx="39" cy="37" rx="3.5" ry="4" fill="#3A2A18"/>
  <ellipse cx="57" cy="37" rx="3.5" ry="4" fill="#3A2A18"/>
  <circle cx="39" cy="37" r="2" fill="#080808"/>
  <circle cx="57" cy="37" r="2" fill="#080808"/>
  <circle cx="40.5" cy="35.5" r="1" fill="white"/>
  <circle cx="58.5" cy="35.5" r="1" fill="white"/>
  <!-- Eyebrows — thick, grey/white for elder -->
  <path d="M33 28 Q39 24 45 27" fill="none" stroke="#DCDCDC" stroke-width="2.5" stroke-linecap="round"/>
  <path d="M51 27 Q57 24 63 28" fill="none" stroke="#DCDCDC" stroke-width="2.5" stroke-linecap="round"/>
  <!-- Nose (more prominent, elder) -->
  <path d="M48 40 Q45 46 45 48 Q48 49 51 48 Q51 46 48 40" fill="#C07858" opacity="0.8"/>
  <!-- Beard — full, flowing, elder landmark -->
  <ellipse cx="48" cy="60" rx="20" ry="18" fill="#E8E8E8"/>
  <path d="M28 52 Q48 72 68 52" fill="#E8E8E8"/>
  <!-- Moustache -->
  <path d="M38 50 Q43 53 48 51 Q53 53 58 50" fill="#E8E8E8" opacity="0.85"/>
  <!-- Gentle smile below mustache -->
  <path d="M43 54 Q48 58 53 54" fill="none" stroke="#906050" stroke-width="1.5" stroke-linecap="round" opacity="0.6"/>
  <!-- Name badge -->
  <rect x="4" y="104" width="88" height="14" rx="4" fill="#C5A57280"/>
  <text x="48" y="115" font-family="serif" font-size="7" fill="#3A1800" text-anchor="middle">Grey Elder</text>
</svg>