<?xml version="1.0" encoding="UTF-8"?>
<svg xmlns="http://www.w3.org/2000/svg" width="64" height="96" viewBox="0 0 64 96">
  <defs>
    <radialGradient id="fg" cx="44%" cy="36%" r="58%">
      <stop offset="0%" stop-color="#D4956A"/>
      <stop offset="100%" stop-color="#A06040"/>
    </radialGradient>
  </defs>
  <!-- Shoulders + simple tunic -->
  <ellipse cx="32" cy="84" rx="26" ry="18" fill="#C07A50" opacity="0.3"/>
  <rect x="8" y="68" width="48" height="30" rx="12" fill="#C8A860" opacity="0.85"/>
  <!-- Neck -->
  <rect x="26" y="60" width="12" height="14" rx="4" fill="url(#fg)" opacity="0.9"/>
  <!-- Head -->
  <ellipse cx="32" cy="38" rx="22" ry="22" fill="url(#fg)"/>
  <!-- Hair / head covering -->
  <path d="M16,42 Q24,18 32,16 Q40,18 48,42" fill="#2A1A08" opacity="0.92"/>
  <!-- Ears -->
  <ellipse cx="10" cy="40" rx="4.5" ry="6" fill="#D4956A"/>
  <ellipse cx="54" cy="40" rx="4.5" ry="6" fill="#D4956A"/>
  <!-- Eyes — large, expressive, cartoon style -->
  <ellipse cx="23" cy="36" rx="7" ry="7.5" fill="white"/>
  <ellipse cx="23" cy="37" rx="5" ry="5" fill="#5A3A1A"/>
  <ellipse cx="23" cy="37" rx="3.2" ry="3.2" fill="#0A0A0A"/>
  <ellipse cx="21" cy="35" rx="1.5" ry="1.2" fill="white" opacity="0.85"/>
  <!-- Eyelashes -->
  <path d="M16 33 Q23 28 30 33" fill="none" stroke="#2A1A10" stroke-width="1.5" stroke-linecap="round"/>
  <ellipse cx="41" cy="36" rx="7" ry="7.5" fill="white"/>
  <ellipse cx="41" cy="37" rx="5" ry="5" fill="#5A3A1A"/>
  <ellipse cx="41" cy="37" rx="3.2" ry="3.2" fill="#0A0A0A"/>
  <ellipse cx="39" cy="35" rx="1.5" ry="1.2" fill="white" opacity="0.85"/>
  <path d="M34 33 Q41 28 48 33" fill="none" stroke="#2A1A10" stroke-width="1.5" stroke-linecap="round"/>
  <!-- Eyebrows -->
  <path d="M16 28 Q23 24 30 28" fill="none" stroke="#2A1A08" stroke-width="2" stroke-linecap="round" opacity="0.85"/>
  <path d="M34 28 Q41 24 48 28" fill="none" stroke="#2A1A08" stroke-width="2" stroke-linecap="round" opacity="0.85"/>
  <!-- Nose — round, soft -->
  <ellipse cx="32" cy="46" rx="3.5" ry="2.5" fill="#A06040" opacity="0.5"/>
  <!-- Gentle smile (children always friendly) -->
  <path d="M24 52 Q32 58 40 52" fill="none" stroke="#A06040" stroke-width="1.8" stroke-linecap="round"/>
  <!-- Cheek blush -->
  <ellipse cx="19" cy="46" rx="5" ry="3.5" fill="#FF9090" opacity="0.25"/>
  <ellipse cx="45" cy="46" rx="5" ry="3.5" fill="#FF9090" opacity="0.25"/>
</svg>