<?xml version="1.0" encoding="UTF-8"?>
<!-- CHARACTER: Girl, Tan, Long Straight -->
<!-- Sprite identified from Twelve Stones reference art -->
<!-- Category: character | Usage: avatar portrait card -->
<svg xmlns="http://www.w3.org/2000/svg" width="80" height="104" viewBox="0 0 80 104">
  <!-- Body / tunic -->
  <ellipse cx="40" cy="90" rx="26" ry="20" fill="#8A6038"/>
  <rect x="20" y="64" width="40" height="32" rx="8" fill="#C09060"/>
  <!-- Neck -->
  <rect x="33" y="46" width="14" height="14" rx="4" fill="#D4946A"/>
  <!-- Hair (behind head) -->
  
  <ellipse cx="40" cy="16" rx="21" ry="16" fill="#1A0C08"/>
  <rect x="20" y="16" width="8" height="44" rx="4" fill="#1A0C08"/>
  <rect x="52" y="16" width="8" height="44" rx="4" fill="#1A0C08"/>
  <!-- Head -->
  <ellipse cx="40" cy="28" rx="20" ry="22" fill="#D4946A"/>
  <!-- Cheek blush -->
  <ellipse cx="28" cy="36" rx="7" ry="5" fill="#E8A870" opacity="0.4"/>
  <ellipse cx="52" cy="36" rx="7" ry="5" fill="#E8A870" opacity="0.4"/>
  <!-- Eyes — big expressive cartoon eyes -->
  <ellipse cx="32" cy="30" rx="5.5" ry="6" fill="white"/>
  <ellipse cx="48" cy="30" rx="5.5" ry="6" fill="white"/>
  <ellipse cx="32" cy="31" rx="3.8" ry="4.5" fill="#3A2010"/>
  <ellipse cx="48" cy="31" rx="3.8" ry="4.5" fill="#3A2010"/>
  <circle cx="32" cy="31" r="2.2" fill="#0D0D0D"/>
  <circle cx="48" cy="31" r="2.2" fill="#0D0D0D"/>
  <!-- Eye shine -->
  <circle cx="33.5" cy="29.5" r="1.2" fill="white"/>
  <circle cx="49.5" cy="29.5" r="1.2" fill="white"/>
  <!-- Eyebrows -->
  <path d="M27 22 Q32 19 37 22" fill="none" stroke="#1A0C08" stroke-width="1.8" stroke-linecap="round"/>
  <path d="M43 22 Q48 19 53 22" fill="none" stroke="#1A0C08" stroke-width="1.8" stroke-linecap="round"/>
  <!-- Nose -->
  <ellipse cx="40" cy="37" rx="2.5" ry="3" fill="#D4946A" opacity="0.7"/>
  <circle cx="38" cy="38" r="1.2" fill="#E8A870" opacity="0.5"/>
  <circle cx="42" cy="38" r="1.2" fill="#E8A870" opacity="0.5"/>
  <!-- Smile -->
  <path d="M33 44 Q40 49 47 44" fill="none" stroke="#C07050" stroke-width="1.8" stroke-linecap="round"/>
  <!-- Label -->
  <rect x="0" y="88" width="80" height="16" rx="3" fill="#00000055"/>
  <text x="40" y="99" font-family="sans-serif" font-size="6.5" fill="white" text-anchor="middle">Girl, Tan, Long Straig</text>
</svg>